# xmcd
#
# Track frame offsets: 
#        150
#        27905
#        64611
#        99661
#        136089
#        171196
#        203455
#        235375
#        270174
#        308116
#
# Disc length: 4520 seconds
#
# Revision: 0
# Processed by: cddbd v1.5.2PL0 Copyright (c) Steve Scherf et al.
# Submitted via: ExactAudioCopy v0.99pb4
#
DISCID=7a11a60a
DTITLE=Various Artist - Transistance 12
DYEAR=1900
DGENRE=Electronic
TTITLE0=Mervit - Avocado
TTITLE1=Cygnet - The Return Of The King Pt.1
TTITLE2=Cyberia - Aurora's Touch
TTITLE3=Skyliner - Hypnos
TTITLE4=Brainfever - Stormreach
TTITLE5=Mergous - The Last Summer
TTITLE6=Lunatic - Love Craft
TTITLE7=Viper - Demolition
TTITLE8=Dementia Ft. Christina - Crazy Friend
TTITLE9=Intruder - Conclusion
EXTD=
EXTT0=
EXTT1=
EXTT2=
EXTT3=
EXTT4=
EXTT5=
EXTT6=
EXTT7=
EXTT8=
EXTT9=
PLAYORDER=
